<?xml version="1.0" encoding="iso-8859-1"?>
<!-- Generator: Adobe Illustrator 19.0.0, SVG Export Plug-In . SVG Version: 6.00 Build 0)  -->
<svg version="1.1" xmlns="http://www.w3.org/2000/svg" xmlns:xlink="http://www.w3.org/1999/xlink" x="0px" y="0px"
	 viewBox="0 0 512 512" style="enable-background:new 0 0 512 512;" xml:space="preserve">
<g id="_x31_5_x2C__chips_x2C__french_x2C__fries_x2C__potato_x2C__snacks">
	<g id="XMLID_5176_">
		<path id="XMLID_5206_" style="fill:#F48787;" d="M346,239.8V486H166V239.8C216.214,288.049,295.75,288.084,346,239.8z"/>
		<path id="XMLID_5205_" style="fill:#E63950;" d="M256,336c27.61,0,50,22.38,50,50c0,27.61-22.39,50-50,50s-50-22.39-50-50
			C206,358.38,228.39,336,256,336z"/>
		<path id="XMLID_5204_" style="fill:#FC6363;" d="M406,157.84c11.67-7.56,25.46-11.84,40-11.84l-44.31,301.3
			c-3.27,22.23-22.34,38.7-44.81,38.7H346V239.8c3.54-3.39,6.88-6.98,10.01-10.75c8.83-10.62,16.01-22.68,21.12-35.76
			C382.95,178.4,393.19,166.14,406,157.84z"/>
		<path id="XMLID_5203_" style="fill:#FC6363;" d="M106,157.84c12.81,8.3,23.05,20.56,28.87,35.45
			c5.11,13.08,12.29,25.14,21.12,35.76c3.13,3.77,6.48,7.36,10.01,10.75V486h-10.88c-22.47,0-41.54-16.47-44.81-38.7L66,146
			C80.54,146,94.33,150.28,106,157.84z"/>
		<path id="XMLID_5202_" style="fill:#FFBE40;" d="M406,106v51.84c-12.81,8.3-23.05,20.56-28.87,35.45
			c-5.11,13.08-12.29,25.14-21.12,35.76l-0.01-0.01V136v-30H406z"/>
		<path id="XMLID_5201_" style="fill:#FFBE40;" d="M306.01,266.03c-15.4,6.42-32.29,9.97-50.01,9.97V86V26h50v110v130.01
			L306.01,266.03z"/>
		<path id="XMLID_5200_" style="fill:#FFBE40;" d="M206,86v180.01l-0.01,0.02c-14.95-6.24-28.49-15.18-39.99-26.23
			c-3.53-3.39-6.88-6.98-10.01-10.75l0.01-0.01V116V56h50V86z"/>
		<path id="XMLID_5199_" style="fill:#FFDF40;" d="M356,229.04l0.01,0.01c-3.13,3.77-6.47,7.36-10.01,10.75
			c-11.5,11.05-25.04,19.99-39.99,26.23l-0.01-0.02V136h50V229.04z"/>
		<path id="XMLID_5198_" style="fill:#FFDF40;" d="M256,86v190c-17.72,0-34.61-3.55-50.01-9.97l0.01-0.02V86H256z"/>
		<path id="XMLID_5197_" style="fill:#FFDF40;" d="M156,116v113.04l-0.01,0.01c-8.83-10.62-16.01-22.68-21.12-35.76
			c-5.82-14.89-16.06-27.15-28.87-35.45V116H156z"/>
		<path id="XMLID_5196_" d="M476,86c5.52,0,10,4.47,10,10c0,5.52-4.48,10-10,10s-10-4.48-10-10C466,90.47,470.48,86,476,86z"/>
		<path id="XMLID_5195_" d="M466,346c5.52,0,10,4.47,10,10c0,5.52-4.48,10-10,10s-10-4.48-10-10C456,350.47,460.48,346,466,346z"/>
		<path id="XMLID_5194_" d="M386,26c5.52,0,10,4.47,10,10c0,5.52-4.48,10-10,10s-10-4.48-10-10C376,30.47,380.48,26,386,26z"/>
		<path id="XMLID_5193_" d="M76,36c5.52,0,10,4.47,10,10c0,5.52-4.48,10-10,10s-10-4.48-10-10C66,40.47,70.48,36,76,36z"/>
		<path id="XMLID_5192_" d="M66,416c5.52,0,10,4.47,10,10c0,5.52-4.48,10-10,10s-10-4.48-10-10C56,420.47,60.48,416,66,416z"/>
		<path id="XMLID_5191_" d="M36,226c5.52,0,10,4.47,10,10c0,5.52-4.48,10-10,10s-10-4.48-10-10C26,230.47,30.48,226,36,226z"/>
		<path id="XMLID_5190_" d="M106,162.846c-2.761,0-5-2.233-5-4.995V116c0-2.762,2.239-5,5-5h50c2.761,0,5,2.238,5,5s-2.239,5-5,5
			h-45v36.84C111,160.602,108.761,162.846,106,162.846z"/>
		<path id="XMLID_5189_" d="M156,234.04c-2.761,0-5-2.238-5-5V56c0-2.762,2.239-5,5-5h50c2.761,0,5,2.238,5,5v30
			c0,2.762-2.239,5-5,5s-5-2.238-5-5V61h-40v168.04C161,231.802,158.761,234.04,156,234.04z"/>
		<path id="XMLID_5188_" d="M206,271.01c-2.761,0-5-2.238-5-5V86c0-2.762,2.239-5,5-5h50c2.761,0,5,2.238,5,5s-2.239,5-5,5h-45
			v175.01C211,268.771,208.761,271.01,206,271.01z"/>
		<path id="XMLID_5187_" d="M256,281c-2.761,0-5-2.238-5-5V26c0-2.762,2.239-5,5-5h50c2.762,0,5,2.238,5,5v110c0,2.762-2.238,5-5,5
			s-5-2.238-5-5V31h-40v245C261,278.762,258.761,281,256,281z"/>
		<path id="XMLID_5186_" d="M306,271.01c-2.762,0-5-2.238-5-5V136c0-2.762,2.238-5,5-5h50c2.762,0,5,2.238,5,5s-2.238,5-5,5h-45
			v125.01C311,268.771,308.762,271.01,306,271.01z"/>
		<path id="XMLID_5185_" d="M356,234.04c-2.762,0-5-2.238-5-5V106c0-2.762,2.238-5,5-5h50c2.762,0,5,2.238,5,5v51.84
			c0,2.762-2.238,5.005-5,5.005s-5-2.232-5-4.994V111h-40v118.04C361,231.802,358.762,234.04,356,234.04z"/>
		<path id="XMLID_5184_" d="M346,491c-2.762,0-5-2.238-5-5V239.8c0-2.762,2.238-5,5-5s5,2.238,5,5V486
			C351,488.762,348.762,491,346,491z"/>
		<path id="XMLID_5183_" d="M166,491c-2.761,0-5-2.238-5-5V239.8c0-2.762,2.239-5,5-5s5,2.238,5,5V486
			C171,488.762,168.761,491,166,491z"/>
		<path id="XMLID_5180_" d="M256,441c-30.327,0-55-24.673-55-55s24.673-55,55-55s55,24.673,55,55S286.327,441,256,441z M256,341
			c-24.813,0-45,20.187-45,45s20.187,45,45,45c24.813,0,45-20.187,45-45S280.813,341,256,341z"/>
		<path id="XMLID_5177_" d="M356.88,491H155.12c-24.762,0-46.153-18.475-49.757-42.973l-44.31-301.3
			c-0.211-1.438,0.213-2.896,1.163-3.996S64.547,141,66,141c15.178,0,29.95,4.372,42.718,12.644
			c14.038,9.097,24.691,22.176,30.809,37.826c4.871,12.467,11.703,24.035,20.308,34.383c2.972,3.581,6.21,7.059,9.628,10.341
			c11.198,10.761,24.135,19.246,38.453,25.223C223.17,267.775,239.349,271,256,271c16.652,0,32.83-3.225,48.086-9.585
			c14.315-5.976,27.253-14.461,38.449-25.221c3.383-3.238,6.62-6.715,9.627-10.338c8.607-10.351,15.439-21.919,20.311-34.386
			c6.118-15.65,16.771-28.73,30.809-37.827C416.051,145.372,430.822,141,446,141c1.453,0,2.834,0.632,3.784,1.731
			c0.949,1.1,1.374,2.559,1.162,3.996l-44.309,301.3C403.033,472.526,381.642,491,356.88,491z M71.825,151.247l43.432,295.325
			C118.144,466.199,135.281,481,155.12,481h201.76c19.839,0,36.977-14.801,39.863-34.428l43.432-295.325
			c-11.18,0.951-21.952,4.633-31.456,10.789c-12.269,7.95-21.582,19.388-26.932,33.074c-5.262,13.468-12.642,25.962-21.933,37.137
			c-3.248,3.912-6.746,7.669-10.396,11.164c-12.086,11.614-26.059,20.778-41.522,27.233C291.452,277.517,273.979,281,256,281
			c-17.979,0-35.452-3.483-51.934-10.354c-15.466-6.456-29.438-15.62-41.531-27.24c-3.687-3.541-7.184-7.297-10.393-11.162
			c-9.29-11.172-16.669-23.666-21.93-37.134c-5.35-13.687-14.663-25.123-26.932-33.073C93.777,155.88,83.005,152.198,71.825,151.247
			z"/>
	</g>
</g>
<g id="Layer_1">
</g>
</svg>
