<?xml version="1.0" encoding="UTF-8" standalone="no"?> <svg width="512" height="512" viewBox="0 0 512 512" fill="none" xmlns="http://www.w3.org/2000/svg">
<path d="M256 24V72L320 48.192L256 24Z" fill="#B8DD66"/>
<path d="M256 136C251.582 136 248 132.418 248 128V24C248 19.582 251.582 16 256 16C260.418 16 264 19.582 264 24V128C264 132.418 260.418 136 256 136Z" fill="#974242"/>
<path d="M360 488H152C116.654 488 88 459.346 88 424H424C424 459.346 395.346 488 360 488Z" fill="#E8944F"/>
<path d="M392 424H120C111.163 424 104 416.837 104 408C104 399.163 111.163 392 120 392H392C400.837 392 408 399.163 408 408C408 416.837 400.837 424 392 424Z" fill="#FCD47C"/>
<path d="M413.616 392H98.384C92.649 392 88 387.351 88 381.616V354.384C88 348.649 92.649 344 98.384 344H413.616C419.351 344 424 348.649 424 354.384V381.616C424 387.351 419.351 392 413.616 392Z" fill="#C3A460"/>
<path d="M392 312H120C111.163 312 104 319.163 104 328C104 336.837 111.163 344 120 344H160V391.548C160 400.163 166.621 407.576 175.227 407.982C184.415 408.414 192 401.093 192 392V368C192 376.836 199.163 384 208 384C216.837 384 224 376.836 224 368V431.548C224 440.163 230.621 447.576 239.227 447.982C248.415 448.414 256 441.093 256 432V344H392C400.837 344 408 336.837 408 328C408 319.163 400.837 312 392 312Z" fill="#FCD47C"/>
<path d="M392 312H120C102.327 312 88 297.673 88 280C88 262.327 102.327 248 120 248H392C409.673 248 424 262.327 424 280C424 297.673 409.673 312 392 312Z" fill="#C95757"/>
<path d="M112 256C112 238.327 126.327 224 144 224H368C385.673 224 400 238.327 400 256C390.389 260.537 384 272 384 272C384 272 358 308 332 272C306 236 280 272 280 272C280 272 254 308 228 272C202 236 176 272 176 272C176 272 150 308 124 272C119.968 266.417 115.936 262.565 112 260.043" fill="#B8DD66"/>
<path d="M424 232H88V218.333C88 155.189 139.189 104 202.333 104H309.666C372.811 104 424 155.189 424 218.333V232Z" fill="#E8944F"/>
<path d="M168 168C165.953 168 163.905 167.219 162.343 165.657L154.343 157.657C151.218 154.532 151.218 149.468 154.343 146.343C157.467 143.22 162.532 143.22 165.656 146.343L173.656 154.343C176.781 157.468 176.781 162.532 173.656 165.657C172.095 167.219 170.047 168 168 168Z" fill="#976134"/>
<path d="M144 208C141.953 208 139.905 207.219 138.343 205.657C135.218 202.532 135.218 197.468 138.343 194.343L146.343 186.343C149.467 183.22 154.532 183.22 157.656 186.343C160.781 189.468 160.781 194.532 157.656 197.657L149.656 205.657C148.095 207.219 146.047 208 144 208Z" fill="#976134"/>
<path d="M216 152H200C195.582 152 192 148.418 192 144C192 139.582 195.582 136 200 136H216C220.418 136 224 139.582 224 144C224 148.418 220.418 152 216 152Z" fill="#976134"/>
<path d="M192 200C189.953 200 187.905 199.219 186.343 197.657L178.343 189.657C175.218 186.532 175.218 181.468 178.343 178.343C181.467 175.22 186.532 175.22 189.656 178.343L197.656 186.343C200.781 189.468 200.781 194.532 197.656 197.657C196.095 199.219 194.047 200 192 200Z" fill="#976134"/>
<path d="M264 168H256C251.582 168 248 164.418 248 160C248 155.582 251.582 152 256 152H264C268.418 152 272 155.582 272 160C272 164.418 268.418 168 264 168Z" fill="#976134"/>
<path d="M240 216C235.582 216 232 212.418 232 208V192C232 187.582 235.582 184 240 184C244.418 184 248 187.582 248 192V208C248 212.418 244.418 216 240 216Z" fill="#976134"/>
<path d="M312 144H296C291.582 144 288 140.418 288 136C288 131.582 291.582 128 296 128H312C316.418 128 320 131.582 320 136C320 140.418 316.418 144 312 144Z" fill="#976134"/>
<path d="M288 208C283.582 208 280 204.418 280 200V184C280 179.582 283.582 176 288 176C292.418 176 296 179.582 296 184V200C296 204.418 292.418 208 288 208Z" fill="#976134"/>
<path d="M376 176H360C355.582 176 352 172.418 352 168C352 163.582 355.582 160 360 160H376C380.418 160 384 163.582 384 168C384 172.418 380.418 176 376 176Z" fill="#976134"/>
<path d="M328 192C323.582 192 320 188.418 320 184V168C320 163.582 323.582 160 328 160C332.418 160 336 163.582 336 168V184C336 188.418 332.418 192 328 192Z" fill="#976134"/>
<path d="M392 208H376C371.582 208 368 204.418 368 200C368 195.582 371.582 192 376 192H392C396.418 192 400 195.582 400 200C400 204.418 396.418 208 392 208Z" fill="#976134"/>
<path d="M432 232V218.333C432 150.878 377.122 95.9995 309.667 95.9995H264V77.5595L322.789 55.6895C325.915 54.5265 327.991 51.5465 328 48.2115C328.009 44.8775 325.948 41.8875 322.829 40.7075L258.829 16.5165C256.372 15.5865 253.614 15.9235 251.452 17.4185C249.29 18.9115 248 21.3715 248 23.9995V95.9995H202.333C134.878 95.9995 80 150.878 80 218.333V232C80 236.418 83.582 240 88 240H107.358C105.173 244.995 104 250.433 104 256C104 256.336 104.027 256.665 104.068 256.99C98.563 258.391 93.507 261.249 89.367 265.379C83.327 271.434 80 279.467 80 288C80 300.879 87.652 311.998 98.645 317.069C96.958 320.35 96 324.064 96 328C96 330.823 96.494 333.531 97.393 336.049C87.718 336.566 80 344.578 80 354.38V381.62C80 391.416 87.71 399.424 97.378 399.949C96.472 402.501 96 405.215 96 408C96 410.804 96.488 413.496 97.376 416H88C83.582 416 80 419.582 80 424C80 463.701 112.299 496 152 496H360C379.239 496 397.321 488.513 410.917 474.917C424.512 461.321 432 443.238 432 424C432 419.582 428.418 416 424 416H414.639C415.533 413.463 416 410.767 416 408C416 405.177 415.506 402.468 414.607 399.95C424.282 399.433 432 391.422 432 381.62V354.38C432 344.578 424.282 336.567 414.607 336.049C415.506 333.531 416 330.823 416 328C416 324.07 415.044 320.361 413.362 317.083C416.761 315.517 419.898 313.349 422.633 310.62C428.673 304.566 432 296.533 432 288C432 273.091 421.751 260.532 407.929 256.996C407.97 256.667 408 256.336 408 256C408 250.432 406.823 244.995 404.636 240H424C428.418 240 432 236.418 432 232ZM264 35.5755L297.216 48.1315L264 60.4875V35.5755ZM96 381.62V354.38C96 353.068 97.067 352 98.38 352H152V384H98.38C97.067 384 96 382.933 96 381.62ZM256 336C251.582 336 248 339.582 248 344V432C248 434.208 247.12 436.265 245.521 437.79C243.924 439.312 241.818 440.1 239.604 439.99C235.412 439.793 232.001 436.006 232.001 431.548V368C232.001 363.582 228.419 360 224.001 360C219.583 360 216.001 363.582 216.001 368C216.001 372.411 212.412 376 208.001 376C203.59 376 200.001 372.411 200.001 368C200.001 363.582 196.419 360 192.001 360C187.583 360 184.001 363.582 184.001 368V392C184.001 394.208 183.121 396.265 181.522 397.79C179.925 399.313 177.817 400.097 175.605 399.99C171.413 399.793 168.002 396.006 168.002 391.548V344C168.002 339.582 164.42 336 160.002 336H120.002C115.591 336 112.002 332.411 112.002 328C112.002 323.589 115.591 320 120.002 320H392.002C396.413 320 400.002 323.589 400.002 328C400.002 332.411 396.413 336 392.002 336H256ZM264 400H392C396.411 400 400 403.589 400 408C400 410.14 399.167 412.154 397.673 413.653C396.154 415.167 394.14 416 392 416H264V400ZM216 400V416H176.121C182.285 415.978 188.08 413.646 192.565 409.366C195.305 406.752 197.362 403.523 198.611 400H216ZM176.052 416H120C115.589 416 112 412.411 112 408C112 405.86 112.833 403.845 114.327 402.346C115.846 400.832 117.86 400 120 400H153.469C156.701 408.985 164.943 415.506 174.85 415.973C175.252 415.992 175.653 416 176.052 416ZM415.437 432C413.743 443.929 408.269 454.938 399.603 463.603C389.029 474.177 374.965 480 360 480H152C123.837 480 100.463 459.103 96.57 432H216.011C216.24 444.886 226.186 455.376 238.85 455.973C239.242 455.992 239.631 456 240.02 456C246.218 456 252.055 453.669 256.565 449.366C261.29 444.858 264 438.528 264 432H415.437ZM413.62 352C414.932 352 416 353.067 416 354.38V381.62C416 382.932 414.933 384 413.62 384H264V352H413.62ZM416 288C416 292.267 414.333 296.286 411.32 299.307C408.286 302.333 404.266 304 400 304H120H112C103.178 304 96 296.822 96 288C96 283.733 97.667 279.714 100.68 276.693C103.714 273.667 107.734 272 112 272H113.706C114.993 273.399 116.268 274.953 117.515 276.684C126.771 289.501 137.377 296 149.037 296C168.313 296 181.916 277.473 182.468 276.708C182.492 276.675 184.918 273.392 188.813 270.153C201.649 259.486 210.248 264.874 215.601 269.857C217.603 271.719 219.591 274.013 221.515 276.683C230.771 289.501 241.377 296 253.037 296C272.313 296 285.916 277.473 286.468 276.708C286.492 276.675 288.918 273.392 292.813 270.153C305.649 259.486 314.248 264.874 319.601 269.857C321.603 271.719 323.591 274.013 325.515 276.683C334.771 289.501 345.377 296 357.037 296C376.313 296 389.916 277.473 390.485 276.684C390.656 276.448 390.826 276.18 390.97 275.926C390.981 275.906 391.946 274.224 393.628 272H400C408.822 272 416 279.178 416 288ZM120 255.986C120.004 250.065 122.208 244.38 126.12 240H385.86C388.817 243.307 390.813 247.349 391.608 251.687C388.959 253.552 386.391 255.873 383.948 258.61C383.31 259.31 382.709 260.01 382.196 260.65C379.641 263.79 377.953 266.504 377.302 267.605C374.646 271.121 366.019 280 357.037 280C350.806 280 344.564 275.732 338.491 267.323C335.959 263.808 333.27 260.719 330.501 258.144C316.033 244.675 298.569 244.568 282.585 257.848C277.154 262.365 273.872 266.821 273.515 267.316C271.139 270.606 262.275 280 253.037 280C246.806 280 240.564 275.732 234.491 267.323C231.959 263.808 229.27 260.719 226.501 258.144C212.033 244.675 194.569 244.568 178.585 257.848C173.154 262.365 169.872 266.821 169.515 267.316C167.139 270.606 158.275 280 149.037 280C142.806 280 136.564 275.732 130.491 267.323C128.034 263.912 125.427 260.913 122.741 258.381C122.712 258.351 122.682 258.323 122.653 258.294C122.601 258.245 122.549 258.189 122.497 258.14C121.675 257.377 120.84 256.665 120 255.986ZM416 224H96V218.333C96 159.701 143.701 112 202.333 112H309.666C368.299 112 416 159.701 416 218.333V224Z" fill="black"/>
<path d="M173.657 154.342L165.657 146.342C162.533 143.219 157.468 143.219 154.344 146.342C151.219 149.467 151.219 154.531 154.344 157.656L162.344 165.656C163.906 167.218 165.953 167.999 168.001 167.999C170.049 167.999 172.096 167.218 173.658 165.656C176.781 162.531 176.781 157.467 173.657 154.342Z" fill="black"/>
<path d="M146.343 186.342L138.343 194.342C135.218 197.467 135.218 202.531 138.343 205.656C139.905 207.218 141.952 207.999 144 207.999C146.048 207.999 148.095 207.218 149.657 205.656L157.657 197.656C160.782 194.531 160.782 189.467 157.657 186.342C154.533 183.219 149.467 183.219 146.343 186.342Z" fill="black"/>
<path d="M216 136H200C195.582 136 192 139.582 192 144C192 148.418 195.582 152 200 152H216C220.418 152 224 148.418 224 144C224 139.582 220.418 136 216 136Z" fill="black"/>
<path d="M189.657 178.342C186.533 175.219 181.468 175.219 178.344 178.342C175.219 181.467 175.219 186.531 178.344 189.656L186.344 197.656C187.906 199.218 189.953 199.999 192.001 199.999C194.049 199.999 196.096 199.218 197.658 197.656C200.783 194.531 200.783 189.467 197.658 186.342L189.657 178.342Z" fill="black"/>
<path d="M264 152H256C251.582 152 248 155.582 248 160C248 164.418 251.582 168 256 168H264C268.418 168 272 164.418 272 160C272 155.582 268.418 152 264 152Z" fill="black"/>
<path d="M240 184C235.582 184 232 187.582 232 192V208C232 212.418 235.582 216 240 216C244.418 216 248 212.418 248 208V192C248 187.582 244.418 184 240 184Z" fill="black"/>
<path d="M312 128H296C291.582 128 288 131.582 288 136C288 140.418 291.582 144 296 144H312C316.418 144 320 140.418 320 136C320 131.582 316.418 128 312 128Z" fill="black"/>
<path d="M288 176C283.582 176 280 179.582 280 184V200C280 204.418 283.582 208 288 208C292.418 208 296 204.418 296 200V184C296 179.582 292.418 176 288 176Z" fill="black"/>
<path d="M384 168C384 163.582 380.418 160 376 160H360C355.582 160 352 163.582 352 168C352 172.418 355.582 176 360 176H376C380.418 176 384 172.418 384 168Z" fill="black"/>
<path d="M328 160C323.582 160 320 163.582 320 168V184C320 188.418 323.582 192 328 192C332.418 192 336 188.418 336 184V168C336 163.582 332.418 160 328 160Z" fill="black"/>
<path d="M368 200C368 204.418 371.582 208 376 208H392C396.418 208 400 204.418 400 200C400 195.582 396.418 192 392 192H376C371.582 192 368 195.582 368 200Z" fill="black"/>
</svg>
